G04*
G04 #@! TF.GenerationSoftware,Altium Limited,CircuitMaker,2.2.1 (2.2.1.6)*
G04*
G04 Layer_Color=20142*
%FSLAX25Y25*%
%MOIN*%
G70*
G04*
G04 #@! TF.SameCoordinates,35D340AA-2A3D-450E-9165-5FFDE7E77ED7*
G04*
G04*
G04 #@! TF.FilePolarity,Negative*
G04*
G01*
G75*
%ADD10C,0.01181*%
%ADD11R,0.05131X0.05918*%
%ADD12R,0.06509X0.06902*%
%ADD13R,0.05918X0.05131*%
%ADD14R,0.05918X0.06509*%
%ADD15C,0.06706*%
%ADD16R,0.06509X0.05918*%
%ADD17C,0.07800*%
%ADD18R,0.13800X0.07300*%
%ADD19O,0.13800X0.07300*%
%ADD20C,0.06800*%
%ADD21C,0.12611*%
%ADD22R,0.08083X0.10642*%
%ADD23O,0.08083X0.10642*%
%ADD24C,0.05800*%
D10*
X137795Y216535D02*
Y482283D01*
Y216535D02*
X836614D01*
Y482283D01*
X137795D02*
X836614D01*
D11*
X199055Y470000D02*
D03*
X205945D02*
D03*
D12*
X725020Y385000D02*
D03*
X732500D02*
D03*
X725020Y425000D02*
D03*
X732500D02*
D03*
X322520Y417500D02*
D03*
X330000D02*
D03*
X322520Y400000D02*
D03*
X330000D02*
D03*
X322520Y377500D02*
D03*
X330000D02*
D03*
X465020Y382500D02*
D03*
X472500D02*
D03*
X465000Y420000D02*
D03*
X472480D02*
D03*
X463760Y402500D02*
D03*
X471240D02*
D03*
X597520Y425000D02*
D03*
X605000D02*
D03*
X597500Y405000D02*
D03*
X604980D02*
D03*
X597520Y385000D02*
D03*
X605000D02*
D03*
X725000Y405000D02*
D03*
X732480D02*
D03*
X173760Y380000D02*
D03*
X181240D02*
D03*
X173760Y400000D02*
D03*
X181240D02*
D03*
X173760Y417500D02*
D03*
X181240D02*
D03*
D13*
X342500Y384390D02*
D03*
Y377500D02*
D03*
Y405945D02*
D03*
Y399055D02*
D03*
Y424390D02*
D03*
Y417500D02*
D03*
X482500Y426890D02*
D03*
Y420000D02*
D03*
Y387500D02*
D03*
Y380610D02*
D03*
X617500Y412500D02*
D03*
Y405610D02*
D03*
Y391890D02*
D03*
Y385000D02*
D03*
X747500Y413445D02*
D03*
Y406555D02*
D03*
Y392500D02*
D03*
Y385610D02*
D03*
X617500Y425000D02*
D03*
Y431890D02*
D03*
X195000Y405945D02*
D03*
Y399055D02*
D03*
Y424390D02*
D03*
Y417500D02*
D03*
Y385945D02*
D03*
Y379055D02*
D03*
X482500Y400610D02*
D03*
Y407500D02*
D03*
X747500Y425000D02*
D03*
Y431890D02*
D03*
D14*
X810650Y422500D02*
D03*
X804350D02*
D03*
X680000Y425000D02*
D03*
X673701D02*
D03*
X398701Y415000D02*
D03*
X405000D02*
D03*
X538701Y420000D02*
D03*
X545000D02*
D03*
D15*
X730000Y355000D02*
D03*
X465000Y357500D02*
D03*
X322500Y355000D02*
D03*
X182500D02*
D03*
X602500Y362500D02*
D03*
D16*
X255000Y416850D02*
D03*
Y423150D02*
D03*
D17*
X182500Y470000D02*
D03*
Y460000D02*
D03*
D18*
X495000Y420000D02*
D03*
X210000Y417500D02*
D03*
X630000Y424000D02*
D03*
X760000D02*
D03*
X355000Y416500D02*
D03*
D19*
X495000Y410000D02*
D03*
Y400000D02*
D03*
Y390000D02*
D03*
Y380000D02*
D03*
Y370000D02*
D03*
Y360000D02*
D03*
X525000Y420000D02*
D03*
Y410000D02*
D03*
Y400000D02*
D03*
Y390000D02*
D03*
Y380000D02*
D03*
Y370000D02*
D03*
Y360000D02*
D03*
X240000Y357500D02*
D03*
Y367500D02*
D03*
Y377500D02*
D03*
Y387500D02*
D03*
Y397500D02*
D03*
Y407500D02*
D03*
Y417500D02*
D03*
X210000Y357500D02*
D03*
Y367500D02*
D03*
Y377500D02*
D03*
Y387500D02*
D03*
Y397500D02*
D03*
Y407500D02*
D03*
X660000Y364000D02*
D03*
Y374000D02*
D03*
Y384000D02*
D03*
Y394000D02*
D03*
Y404000D02*
D03*
Y414000D02*
D03*
Y424000D02*
D03*
X630000Y364000D02*
D03*
Y374000D02*
D03*
Y384000D02*
D03*
Y394000D02*
D03*
Y404000D02*
D03*
Y414000D02*
D03*
X790000Y364000D02*
D03*
Y374000D02*
D03*
Y384000D02*
D03*
Y394000D02*
D03*
Y404000D02*
D03*
Y414000D02*
D03*
Y424000D02*
D03*
X760000Y364000D02*
D03*
Y374000D02*
D03*
Y384000D02*
D03*
Y394000D02*
D03*
Y404000D02*
D03*
Y414000D02*
D03*
X385000Y356500D02*
D03*
Y366500D02*
D03*
Y376500D02*
D03*
Y386500D02*
D03*
Y396500D02*
D03*
Y406500D02*
D03*
Y416500D02*
D03*
X355000Y356500D02*
D03*
Y366500D02*
D03*
Y376500D02*
D03*
Y386500D02*
D03*
Y396500D02*
D03*
Y406500D02*
D03*
D20*
X567500Y470000D02*
D03*
X570528Y225277D02*
D03*
X147895Y229505D02*
D03*
X825000Y230000D02*
D03*
Y470000D02*
D03*
X150000D02*
D03*
X192500Y267500D02*
D03*
X202500D02*
D03*
X212500D02*
D03*
X222500D02*
D03*
X232500D02*
D03*
X242500D02*
D03*
X252500D02*
D03*
X262500D02*
D03*
X272500D02*
D03*
X282500D02*
D03*
X292500D02*
D03*
X302500D02*
D03*
X312500D02*
D03*
X322500D02*
D03*
X332500D02*
D03*
X342500D02*
D03*
X352500D02*
D03*
X362500D02*
D03*
X372500D02*
D03*
X382500D02*
D03*
X192500Y257500D02*
D03*
X202500D02*
D03*
X212500D02*
D03*
X222500D02*
D03*
X232500D02*
D03*
X242500D02*
D03*
X252500D02*
D03*
X262500D02*
D03*
X272500D02*
D03*
X282500D02*
D03*
X292500D02*
D03*
X302500D02*
D03*
X312500D02*
D03*
X322500D02*
D03*
X332500D02*
D03*
X342500D02*
D03*
X352500D02*
D03*
X362500D02*
D03*
X372500D02*
D03*
X382500D02*
D03*
X782500D02*
D03*
X772500D02*
D03*
X762500D02*
D03*
X752500D02*
D03*
X742500D02*
D03*
X732500D02*
D03*
X722500D02*
D03*
X712500D02*
D03*
X702500D02*
D03*
X692500D02*
D03*
X682500D02*
D03*
X672500D02*
D03*
X662500D02*
D03*
X652500D02*
D03*
X642500D02*
D03*
X632500D02*
D03*
X622500D02*
D03*
X612500D02*
D03*
X602500D02*
D03*
X592500D02*
D03*
X782500Y267500D02*
D03*
X772500D02*
D03*
X762500D02*
D03*
X752500D02*
D03*
X742500D02*
D03*
X732500D02*
D03*
X722500D02*
D03*
X712500D02*
D03*
X702500D02*
D03*
X692500D02*
D03*
X682500D02*
D03*
X672500D02*
D03*
X662500D02*
D03*
X652500D02*
D03*
X642500D02*
D03*
X632500D02*
D03*
X622500D02*
D03*
X612500D02*
D03*
X602500D02*
D03*
X592500D02*
D03*
X582500Y257500D02*
D03*
X572500D02*
D03*
X562500D02*
D03*
X552500D02*
D03*
X542500D02*
D03*
X532500D02*
D03*
X522500D02*
D03*
X512500D02*
D03*
X502500D02*
D03*
X492500D02*
D03*
X482500D02*
D03*
X472500D02*
D03*
X462500D02*
D03*
X452500D02*
D03*
X442500D02*
D03*
X432500D02*
D03*
X422500D02*
D03*
X412500D02*
D03*
X402500D02*
D03*
X392500D02*
D03*
X582500Y267500D02*
D03*
X572500D02*
D03*
X562500D02*
D03*
X552500D02*
D03*
X542500D02*
D03*
X532500D02*
D03*
X522500D02*
D03*
X512500D02*
D03*
X502500D02*
D03*
X492500D02*
D03*
X482500D02*
D03*
X472500D02*
D03*
X462500D02*
D03*
X452500D02*
D03*
X442500D02*
D03*
X432500D02*
D03*
X422500D02*
D03*
X412500D02*
D03*
X402500D02*
D03*
X392500D02*
D03*
D21*
X720000Y365000D02*
D03*
X740000D02*
D03*
X720000Y345000D02*
D03*
X740000D02*
D03*
X455000Y367500D02*
D03*
X475000D02*
D03*
X455000Y347500D02*
D03*
X475000D02*
D03*
X312500Y365000D02*
D03*
X332500D02*
D03*
X312500Y345000D02*
D03*
X332500D02*
D03*
X172500Y365000D02*
D03*
X192500D02*
D03*
X172500Y345000D02*
D03*
X192500D02*
D03*
X612500Y352500D02*
D03*
X592500D02*
D03*
X612500Y372500D02*
D03*
X592500D02*
D03*
D22*
X236280Y447500D02*
D03*
X389764Y446850D02*
D03*
X677165Y448819D02*
D03*
X801181Y452756D02*
D03*
X533465Y448819D02*
D03*
D23*
X222500Y447500D02*
D03*
X375984Y446850D02*
D03*
X663386Y448819D02*
D03*
X787402Y452756D02*
D03*
X519685Y448819D02*
D03*
D24*
X322835Y287402D02*
D03*
X360236Y295276D02*
D03*
X383858Y303150D02*
D03*
X575000Y332500D02*
D03*
X605000Y322500D02*
D03*
X565000D02*
D03*
X709688Y322187D02*
D03*
X700000Y315000D02*
D03*
Y305000D02*
D03*
X657500Y330000D02*
D03*
X300000Y295000D02*
D03*
X225000Y287500D02*
D03*
X672500Y307500D02*
D03*
X582500Y300000D02*
D03*
X530000Y307500D02*
D03*
X282500Y277500D02*
D03*
X777500Y435000D02*
D03*
X757500Y442500D02*
D03*
X647500Y445000D02*
D03*
X615000D02*
D03*
X505000Y440000D02*
D03*
X492500D02*
D03*
X360000Y470000D02*
D03*
X342500D02*
D03*
M02*
