M48
;Layer_Color=6321
;FILE_FORMAT=2:5
INCH,LZ
;TYPE=PLATED
T1F00S00C0.02800
T2F00S00C0.03543
T3F00S00C0.03937
T4F00S00C0.04000
T5F00S00C0.06693
;TYPE=NON_PLATED
T6F00S00C0.12598
%
T01
X06725Y03075
X07Y0305
X05825Y03
X053Y03075
X0383858Y030315
X0360236Y0295276
X0322835Y0287402
X03Y0295
X02825Y02775
X0225Y02875
X0565Y03225
X0575Y03325
X0605Y03225
X0615Y0445
X0505Y044
X04925
X06475Y0445
X07575Y04425
X07775Y0435
X0709688Y0322187
X07Y0315
X06575Y033
X036Y047
X03425
T02
X021Y03575
Y03675
Y03775
Y03875
Y03975
Y04075
Y04175
X024
Y04075
Y03975
Y03875
Y03775
Y03675
Y03575
X0355Y03565
Y03665
Y03765
Y03865
Y03965
Y04065
Y04165
X0385
Y04065
Y03965
Y03865
Y03765
Y03665
Y03565
X0495Y036
Y037
Y038
Y039
Y04
Y041
Y042
X0525
Y041
Y04
Y039
Y038
Y037
Y036
X063Y0364
Y0374
Y0384
Y0394
Y0404
Y0414
Y0424
X066
Y0414
Y0404
Y0394
Y0384
Y0374
Y0364
X076
Y0374
Y0384
Y0394
Y0404
Y0414
Y0424
X079
Y0414
Y0404
Y0394
Y0384
Y0374
Y0364
T03
X02225Y04475
X023628
X0375984Y044685
X0389764
X0519685Y0448819
X0533465
X0663386
X0677165
X0787402Y0452756
X0801181
T04
X07825Y02575
Y02675
X07725
Y02575
X07625
X07525
X07425
X07325
X07225
X07125
X07025
X06925
X06825
X06725
X06625
X06525
X06425
X06325
Y02675
X06425
X06525
X06625
X06725
X06825
X06925
X07025
X07125
X07225
X07325
X07425
X07525
X07625
X06225
Y02575
X06125
X06025
X05925
Y02675
X06025
X06125
X05825
Y02575
X05725
X05625
X05525
X05425
X05325
X05225
X05125
X05025
X04925
X04825
X04725
Y02675
X04825
X04925
X05025
X05125
X05225
X05325
X05425
X05525
X05625
X05725
X04625
Y02575
X04525
X04425
X04325
X04225
X04125
X04025
X03925
X03825
Y02675
X03725
X03625
X03525
X03425
X03325
X03225
X03125
Y02575
X03225
X03325
X03425
X03525
X03625
X03725
X03925Y02675
X04025
X04125
X04225
X04325
X04425
X04525
X03025
X02925
X02825
X02725
X02625
X02525
X02425
X02325
X02225
X02125
X02025
X01925
Y02575
X02025
X02125
X02225
X02325
X02425
X02525
X02625
X02725
X02825
X02925
X03025
X01825Y046
Y047
T05
X01725Y0345
Y0365
X01925
Y0345
X03125
Y0365
X03325
Y0345
X0455Y03475
Y03675
X0475
Y03475
X05925Y03525
X06125
Y03725
X05925
X072Y0365
X074
Y0345
X072
T06
X0825Y023
X0570528Y0225277
X0147895Y0229505
X0825Y047
X05675
X015
M30
